<svg xmlns="http://www.w3.org/2000/svg" viewBox="0 0 158 134" >
<path d="M23.1903 12.3827L32.9619 17.6964L41.6003 23.6258C41.9968 23.898 42.3519 24.2259 42.6548 24.5994L44.2347 26.5483C46.1711 28.9369 45.513 32.4908 42.8497 34.0277L31.8749 40.3607L18.5174 46.1921C16.0089 47.2872 13.0861 46.1618 11.9598 43.6672L10.9691 41.4728C10.7165 40.9134 10.5691 40.3123 10.5343 39.6995L9.99455 30.2153L9.9907 19.6828L10.286 15.5116C10.3084 15.1948 10.361 14.8809 10.443 14.574L10.7159 13.5524C11.3443 11.2005 13.5752 9.64302 15.9995 9.86359L16.4109 9.90102C16.8913 9.94472 17.3627 10.0577 17.8107 10.2364L23.1903 12.3827Z"/>
<path d="M133.931 12.3827L124.159 17.6964L115.521 23.6258C115.124 23.898 114.769 24.2259 114.466 24.5994L112.886 26.5483C110.95 28.9369 111.608 32.4908 114.271 34.0277L125.246 40.3607L138.604 46.1921C141.112 47.2872 144.035 46.1618 145.161 43.6672L146.152 41.4728C146.405 40.9134 146.552 40.3123 146.587 39.6995L147.127 30.2153L147.13 19.6828L146.835 15.5116C146.813 15.1948 146.76 14.8809 146.678 14.574L146.405 13.5524C145.777 11.2005 143.546 9.64302 141.122 9.86359L140.71 9.90102C140.23 9.94472 139.758 10.0577 139.31 10.2364L133.931 12.3827Z">
<path d="M90.0494 129.827L86.9274 130.639C78.4655 132.839 69.5673 132.719 61.1675 130.293C54.7899 128.45 48.8565 125.323 43.7322 121.103L42.7698 120.31C37.3085 115.813 32.7713 110.299 29.4097 104.073L27.4984 100.534C23.2225 92.6157 20.8092 83.8264 20.4422 74.8349L20.2079 69.0935C20.0704 65.7259 20.5462 62.3613 21.6121 59.1638L22.1175 57.6475C23.3502 53.9494 25.5464 50.6469 28.48 48.08C30.8006 46.0495 33.5233 44.5313 36.4704 43.6245L43.4376 41.4807C48.7825 39.8362 54.3433 39 59.9355 39H78H96.4507C100.8 39 105.132 39.5443 109.346 40.6202L120.346 43.4288C124.337 44.4477 127.879 46.7555 130.424 49.9941C131.47 51.3252 132.33 52.7922 132.981 54.3548L133.538 55.6903C135.794 61.1052 136.373 67.0727 135.2 72.8204L133.366 81.809C132.458 86.2549 131.042 90.5817 129.146 94.704L127.357 98.5934C122.877 108.332 115.733 116.604 106.75 122.453C101.617 125.796 95.9774 128.286 90.0494 129.827Z"/>
</svg>